<svg width="1600" height="900" viewBox="0 0 1600 900" fill="none" xmlns="http://www.w3.org/2000/svg">
  <rect width="1600" height="900" rx="36" fill="#050816"/>
  <rect x="60" y="60" width="1480" height="780" rx="28" fill="url(#bg)"/>
  <g opacity="0.9">
    <circle cx="1260" cy="220" r="170" fill="url(#orb1)"/>
    <circle cx="360" cy="710" r="220" fill="url(#orb2)"/>
  </g>
  <g stroke="rgba(255,255,255,0.22)" stroke-width="2">
    <path d="M260 220H430C465.346 220 494 248.654 494 284V320"/>
    <path d="M930 200H1120C1160.18 200 1192 231.824 1192 272V330"/>
    <path d="M540 620H700C735.346 620 764 648.654 764 684V740"/>
    <path d="M870 520H1040C1075.35 520 1104 548.654 1104 584V640"/>
  </g>
  <g fill="white" opacity="0.95">
    <circle cx="260" cy="220" r="10"/>
    <circle cx="494" cy="320" r="10"/>
    <circle cx="930" cy="200" r="10"/>
    <circle cx="1192" cy="330" r="10"/>
    <circle cx="540" cy="620" r="10"/>
    <circle cx="764" cy="740" r="10"/>
    <circle cx="870" cy="520" r="10"/>
    <circle cx="1104" cy="640" r="10"/>
  </g>
  <g opacity="0.85">
    <path d="M300 310H500" stroke="#6C63FF" stroke-width="6" stroke-linecap="round"/>
    <path d="M760 280H980" stroke="#22D3EE" stroke-width="6" stroke-linecap="round"/>
    <path d="M360 480H620" stroke="#00C2FF" stroke-width="6" stroke-linecap="round"/>
    <path d="M740 650H1030" stroke="#8B5CF6" stroke-width="6" stroke-linecap="round"/>
  </g>
  <g opacity="0.9">
    <rect x="280" y="250" width="120" height="120" rx="20" fill="#0F172A" stroke="#6C63FF" stroke-width="2"/>
    <rect x="760" y="220" width="120" height="120" rx="20" fill="#0F172A" stroke="#22D3EE" stroke-width="2"/>
    <rect x="340" y="430" width="120" height="120" rx="20" fill="#0F172A" stroke="#00C2FF" stroke-width="2"/>
    <rect x="720" y="590" width="120" height="120" rx="20" fill="#0F172A" stroke="#8B5CF6" stroke-width="2"/>
  </g>
  <circle cx="340" cy="310" r="28" fill="#6C63FF"/>
  <circle cx="820" cy="280" r="28" fill="#22D3EE"/>
  <circle cx="400" cy="490" r="28" fill="#00C2FF"/>
  <circle cx="780" cy="650" r="28" fill="#8B5CF6"/>
  <defs>
    <linearGradient id="bg" x1="120" y1="80" x2="1460" y2="760" gradientUnits="userSpaceOnUse">
      <stop stop-color="#0E1634"/>
      <stop offset="1" stop-color="#121C47"/>
    </linearGradient>
    <radialGradient id="orb1" cx="0" cy="0" r="1" gradientUnits="userSpaceOnUse" gradientTransform="translate(1260 220) rotate(90) scale(170)">
      <stop stop-color="#6C63FF" stop-opacity="0.8"/>
      <stop offset="1" stop-color="#6C63FF" stop-opacity="0"/>
    </radialGradient>
    <radialGradient id="orb2" cx="0" cy="0" r="1" gradientUnits="userSpaceOnUse" gradientTransform="translate(360 710) rotate(90) scale(220)">
      <stop stop-color="#22D3EE" stop-opacity="0.75"/>
      <stop offset="1" stop-color="#22D3EE" stop-opacity="0"/>
    </radialGradient>
  </defs>
</svg>
